<svg xmlns="http://www.w3.org/2000/svg" viewBox="0 0 512 512"><rect width="512" height="512" rx="96" fill="#245d53"/><rect x="54" y="54" width="404" height="404" rx="92" fill="#2f7468"/><rect x="74" y="74" width="364" height="364" rx="74" fill="#245d53"/><rect x="102" y="158" width="94" height="222" rx="10" fill="#f5efe5"/><rect x="204" y="126" width="104" height="254" rx="10" fill="#9c8f84"/><rect x="316" y="148" width="94" height="232" rx="10" fill="#d98263"/><rect x="94" y="380" width="324" height="26" fill="#173f39"/><g fill="#173f39"><rect x="122" y="186" width="23" height="34" rx="5"/><rect x="158" y="186" width="23" height="34" rx="5"/><rect x="122" y="238" width="23" height="34" rx="5"/><rect x="158" y="238" width="23" height="34" rx="5"/><rect x="122" y="290" width="23" height="34" rx="5"/><rect x="158" y="290" width="23" height="34" rx="5"/><rect x="338" y="182" width="23" height="34" rx="5"/><rect x="374" y="182" width="23" height="34" rx="5"/><rect x="338" y="236" width="23" height="34" rx="5"/><rect x="374" y="236" width="23" height="34" rx="5"/><rect x="338" y="290" width="23" height="34" rx="5"/><rect x="374" y="290" width="23" height="34" rx="5"/><rect x="244" y="334" width="30" height="46" rx="6"/></g><g fill="#d7e7ee"><rect x="228" y="158" width="23" height="34" rx="5"/><rect x="268" y="158" width="23" height="34" rx="5"/><rect x="228" y="214" width="23" height="34" rx="5"/><rect x="268" y="214" width="23" height="34" rx="5"/><rect x="228" y="270" width="23" height="34" rx="5"/><rect x="268" y="270" width="23" height="34" rx="5"/></g><path d="M112 126h288M326 230h84M326 282h84M326 334h84" stroke="#fff" stroke-width="8" stroke-linecap="round"/><path d="M336 206v24M388 206v24M336 258v24M388 258v24M336 310v24M388 310v24" stroke="#fff" stroke-width="5" stroke-linecap="round"/></svg>